<?xml version="1.0" encoding="utf-8"?>
<!-- Generator: Adobe Illustrator 17.0.0, SVG Export Plug-In . SVG Version: 6.00 Build 0)  -->
<!DOCTYPE svg PUBLIC "-//W3C//DTD SVG 1.1//EN" "http://www.w3.org/Graphics/SVG/1.1/DTD/svg11.dtd">
<svg version="1.1"
	 id="svg2" xmlns:dc="http://purl.org/dc/elements/1.1/" xmlns:cc="http://creativecommons.org/ns#" xmlns:rdf="http://www.w3.org/1999/02/22-rdf-syntax-ns#" xmlns:svg="http://www.w3.org/2000/svg" xmlns:sodipodi="http://sodipodi.sourceforge.net/DTD/sodipodi-0.dtd" xmlns:inkscape="http://www.inkscape.org/namespaces/inkscape" sodipodi:docname="New document 1" inkscape:version="0.48.4 r9939"
	 xmlns="http://www.w3.org/2000/svg" xmlns:xlink="http://www.w3.org/1999/xlink" x="0px" y="0px" width="1700px" height="2000px"
	 viewBox="0 0 1700 2000" enable-background="new 0 0 1700 2000" xml:space="preserve">
<sodipodi:namedview  showgrid="false" inkscape:cy="1026.8403" inkscape:cx="-363.06671" inkscape:zoom="0.2293457" borderopacity="1.0" bordercolor="#666666" pagecolor="#ffffff" id="base" inkscape:window-maximized="1" inkscape:window-y="-8" inkscape:current-layer="layer1" inkscape:pageshadow="2" inkscape:document-units="px" inkscape:pageopacity="0.0" inkscape:window-height="838" inkscape:window-x="-8" inkscape:window-width="1600">
	</sodipodi:namedview>
<g id="layer1" transform="translate(0,947.63782)" inkscape:label="Layer 1" inkscape:groupmode="layer">
	<path id="path3768" sodipodi:nodetypes="ccccccccccccccccccccc" inkscape:connector-curvature="0" stroke="#000000" d="
		M697.32,167.844v285.053H236.674v-560.984L58.801-365.775l171.032-98.058v-184.714h312.418l126.026-269.076L850-821.859
		l181.723-95.764l126.026,269.076h312.418v184.714l171.032,98.058l-177.873,257.688v560.984H1002.68V167.844L850,257.383
		L697.32,167.844z"/>
	
		<path id="path3775" sodipodi:nodetypes="ccccccccccccccccccccc" inkscape:connector-curvature="0" fill="#FFFFFF" stroke="#000000" d="
		M632.326,60.656v325.517H299.61v-527.325L160.382-347.628l131.133-80.714v-162.957h301.118L701.314-821.69l145.658,78.449
		l145.658-78.449l108.682,230.391h301.118v162.957l131.133,80.714l-139.228,206.475v527.325H1061.62V60.656l-214.647,127.71
		L632.326,60.656z"/>
	<path id="path3779" sodipodi:nodetypes="ccccccc" inkscape:connector-curvature="0" stroke="#000000" d="M612.958-552.289
		l105.619-221.719l128.396,71.756l128.396-71.756l105.619,221.719L846.973-412.808L612.958-552.289z"/>
	
		<path id="path3783" sodipodi:nodetypes="ccccccc" inkscape:connector-curvature="0" fill="#FFFFFF" stroke="#000000" stroke-width="0.6256" d="
		M699.654-567.682L752.028-680.6l94.945,48.119l94.945-48.119l52.374,112.917l-147.319,87.266L699.654-567.682z"/>
	<path id="path3787" inkscape:connector-curvature="0" stroke="#000000" d="M547.721-547.452H338.095v140.288l-129,69.338
		l130.613,185.438L599.321-0.814v-258l220.913-130.613L547.721-547.452z"/>
	<path id="path3789" sodipodi:nodetypes="ccccccccc" inkscape:connector-curvature="0" fill="#FFFFFF" stroke="#000000" d="
		M393.453-484.564v116.1l-91.913,46.763l80.625,119.325l151.575,85.463v-177.375l148.35-90.3l-170.925-99.975L393.453-484.564z"/>
	<path id="path3791" inkscape:connector-curvature="0" stroke="#000000" d="M1146.225-547.452h209.625v140.288l129,69.338
		l-130.613,185.438L1094.625-0.814v-258L873.712-389.427L1146.225-547.452z"/>
	<path id="path3793" sodipodi:nodetypes="ccccccccc" inkscape:connector-curvature="0" fill="#FFFFFF" stroke="#000000" d="
		M1294.576-484.564v116.1l91.913,46.763l-80.625,119.325l-151.575,85.463v-177.375l-148.35-90.3l170.925-99.975L1294.576-484.564z"
		/>
	<path id="path3803" sodipodi:nodetypes="ccccccc" inkscape:connector-curvature="0" stroke="#000000" d="M624.673,24.986v-262.838
		l222.3-127.388l222.3,127.388V24.986l-222.3,129.816L624.673,24.986z"/>
	
		<path id="path3807" sodipodi:nodetypes="ccccccc" inkscape:connector-curvature="0" fill="#FFFFFF" stroke="#000000" stroke-width="0.731" d="
		M684.471-10.038v-192.135l162.502-93.121l162.502,93.121v192.135L846.973,84.857L684.471-10.038z"/>
	<path id="path3813" sodipodi:nodetypes="ccccc" inkscape:connector-curvature="0" stroke="#000000" d="M1097.415,39l269.66-161.91
		v461.786h-269.66V39z"/>
	<path id="path3815" sodipodi:nodetypes="ccccc" inkscape:connector-curvature="0" fill="#FFFFFF" stroke="#000000" d="
		M1164.117,72.066l137.966-86.656v288.474h-137.966V72.066z"/>
	<path id="path3817" sodipodi:nodetypes="ccccc" inkscape:connector-curvature="0" stroke="#000000" d="M599.713,39l-269.66-161.91
		v461.786h269.66L599.713,39z"/>
	<path id="path3819" sodipodi:nodetypes="ccccc" inkscape:connector-curvature="0" fill="#FFFFFF" stroke="#000000" d="
		M533.01,72.066L395.045-14.59v288.474H533.01V72.066z"/>
	
		<image overflow="visible" width="708" height="306" id="path3876" xlink:href="D3CC3E15.png"  inkscape:connector-curvature="0" transform="matrix(9.2278 0 0 9.2278 6395.6362 1393.3247)">
	</image>
	<g id="g3927" transform="matrix(0.25269658,0,0,0.25269658,1126.5302,46.834347)">
		<g id="g3902">
			<path id="path3854" inkscape:connector-curvature="0" stroke="#000000" stroke-width="15.8293" d="M1655.766,3355.353
				c5.829-7.024,31.479-26.63,57-43.57c25.521-16.94,66.305-53.378,90.631-80.974c62.351-70.732,61.189-90.962-9.449-164.525
				c-47.137-49.089-52.9-58.699-45.782-76.351c39.01-96.738,61.699-144.838,68.363-144.929c19.748-0.269,68.57,48.698,89.257,89.522
				c20.751,40.95,22.394,51.657,18.474,120.409c-5.164,90.569-27.965,146.539-88.509,217.263
				c-32.397,37.845-53.386,52.968-99.492,71.689C1668.864,3371.254,1639.045,3375.501,1655.766,3355.353L1655.766,3355.353z"/>
			<path id="path3856" inkscape:connector-curvature="0" stroke="#000000" stroke-width="15.8293" d="M1570.842,2722.811
				c0-16.787,1.795-23.654,3.988-15.261c2.193,8.393,2.193,22.128,0,30.521S1570.842,2739.598,1570.842,2722.811z"/>
			<path id="path3858" inkscape:connector-curvature="0" stroke="#000000" stroke-width="15.8293" d="M596.489,3362.254
				c-74.515-19.616-104.88-154.712-79.042-351.668c22.87-174.333,73.465-473.412,81.02-478.928
				c3.809-2.781,16.38-25.647,27.934-50.813c11.555-25.166,22.014-44.751,23.243-43.522c1.229,1.229-11.128,96.38-27.46,211.445
				c-16.332,115.066-29.776,214.116-29.875,220.111c-0.469,28.421,37.426,5.131,94.502-58.08
				c34.257-37.939,62.286-70.875,62.286-73.191c0-2.316,25.795-31.119,57.322-64.007s62.705-69.606,69.284-81.596
				c6.579-11.991,30.275-39.46,52.658-61.043c22.383-21.583,64.039-69.325,92.568-106.093
				c28.529-36.768,57.139-68.873,63.578-71.344s34.333-33.213,61.987-68.316c27.654-35.103,71.202-84.934,96.775-110.737
				c25.573-25.802,46.496-50.413,46.496-54.69c0-8.616,79.467-113.25,110.836-145.938c25.151-26.208,24.973-23.192-2.276,38.423
				c-21.593,48.826-67,121.639-86.902,139.355c-5.388,4.796-17.038,20.493-25.889,34.882
				c-14.214,23.108-113.661,149.936-126.5,161.328c-2.703,2.398-37.676,41.64-77.718,87.205
				c-40.042,45.564-93.907,105.509-119.699,133.21s-56.298,64.981-67.79,82.844c-11.493,17.863-35.189,45.707-52.659,61.876
				c-17.47,16.169-57.179,61.02-88.243,99.669c-57.71,71.804-59.967,84.136-15.455,84.451c10.392,0.07,20.202,3.24,21.801,7.037
				c4.949,11.754,139.625,39.746,194.469,40.419l52.035,0.639l34.215-45.782c29.089-38.923,38.488-45.782,62.736-45.782
				c20.984,0,34.338-6.913,50.534-26.161c13.469-16.006,30.336-26.161,43.455-26.161c11.793,0,34.045-11.773,49.448-26.161
				c15.403-14.389,34.025-26.161,41.383-26.161c23.454,0,36.537-28.862,36.824-81.236c0.221-40.409,6.887-64.332,32.806-117.726
				l32.528-67.012l3.049,52.323c5.417,92.973-28.383,194.775-81.23,244.653c-10.444,9.857-22.555,24.083-26.913,31.613
				c-9.033,15.605-106.753,85.633-119.497,85.633c-18.661,0-127.467,75.737-140.942,98.105c-7.945,13.19-18.82,23.981-24.167,23.981
				s-16.774,6.383-25.395,14.185c-13.383,12.112-21.514,12.714-55.637,4.122c-21.979-5.535-43.147-8.094-47.04-5.689
				c-3.892,2.406-12.049,22.134-18.127,43.84c-6.078,21.707-13.974,39.467-17.547,39.467c-3.573,0-8.968,12.355-11.988,27.456
				s-21.186,60.184-40.368,100.185c-26.318,54.88-42.893,78.01-67.542,94.248C683.132,3359.009,628.044,3370.559,596.489,3362.254
				L596.489,3362.254L596.489,3362.254z M766.042,3144.141c16.065-8.975,36.484-29.882,45.375-46.459
				c31.852-59.393,14-100.324-48.157-110.411c-17.382-2.821-31.603-8.539-31.603-12.708s-26.488-7.456-58.863-7.305
				c-53.108,0.248-60.471,2.48-75.312,22.836c-36.711,50.356-20.765,140.461,29.529,166.859
				C655.604,3171.96,728.224,3165.268,766.042,3144.141L766.042,3144.141L766.042,3144.141z"/>
			<path id="path3860" inkscape:connector-curvature="0" stroke="#000000" stroke-width="15.8293" d="M741.685,2225.691
				c-19.905-14.419-36.19-30.228-36.19-35.131c0-14.29,51.4-112.092,67.837-129.078c14.365-14.844,16.396-14.605,47.431,5.588
				c17.833,11.603,34.775,28.506,37.65,37.563c7.362,23.195,17.718,20.469,29.403-7.741c5.515-13.314,21.26-37.368,34.988-53.453
				l24.962-29.247l31.546,25.112c17.35,13.812,33.848,32.321,36.661,41.131c7.619,23.856-4.399,75.762-18.823,81.297
				c-6.93,2.659-12.6,9.617-12.6,15.462s-9.289,19.354-20.641,30.019l-20.641,19.392l-36.753-35.313
				c-42.884-41.202-50.513-42.983-57.91-13.511c-3.009,11.991-8.124,21.801-11.367,21.801s-12.849,11.773-21.349,26.161
				C796.58,2258.431,786.872,2258.424,741.685,2225.691L741.685,2225.691z"/>
			<path id="path3862" inkscape:connector-curvature="0" stroke="#000000" stroke-width="15.8293" d="M829.547,2004.492
				l-37.277-36.95l13.197-37.405c18.671-52.92,49.61-105.532,62.058-105.532c18.873,0,64.701,60.444,64.694,85.328
				c-0.008,25.981-47.407,133.037-58.486,132.096C869.933,2041.706,850.049,2024.815,829.547,2004.492L829.547,2004.492
				L829.547,2004.492z"/>
			<path id="path3864" inkscape:connector-curvature="0" stroke="#000000" stroke-width="15.8293" d="M1328.545,1874.51
				c-2.351-6.126-19.886-20.787-38.968-32.58c-43.92-27.144-44.369-44.327-3.204-122.663c26.61-50.639,33.858-58.659,46.766-51.751
				c22.87,12.24,69.991,68.604,69.991,83.72c0,13.658-59.754,134.412-66.512,134.412
				C1334.529,1885.648,1330.896,1880.636,1328.545,1874.51z"/>
			<path id="path3866" inkscape:connector-curvature="0" stroke="#000000" stroke-width="15.8293" d="M140.656,3357.734
				c-10.896-5.437-22.166-19.271-25.045-30.742c-7.581-30.204,1.697-110.17,13.228-114.014c5.405-1.801,10.416-9.816,11.136-17.81
				s3.663,3.125,6.54,24.708l5.231,39.242l42.177,2.688c53.781,3.429,84.27-14.689,84.27-50.077
				c0-46.146-73.729-89.046-102.901-59.873c-5.814,5.813-10.465,6.589-10.465,1.744c0-4.796,4.709-13.429,10.465-19.185
				c7.828-7.828,7.962-12.967,0.531-20.398c-10.162-10.162,5.73-60.75,49.636-158.007c17.258-38.229,20.241-40.716,37.913-31.612
				c79.374,40.891,101.604,112.958,71.077,230.422c-16.292,62.688-72.692,168.24-101.1,189.207
				C206.307,3363.986,165.331,3370.045,140.656,3357.734L140.656,3357.734z"/>
			<path id="path3868" inkscape:connector-curvature="0" stroke="#000000" stroke-width="15.8293" d="M1484.582,3106.51
				c11.865-53.337,23.834-218.004,19.016-261.613c-10.057-91.022,25.208-293.844,54.412-312.938
				c4.507-2.947,10.704-11.244,13.773-18.438c10.429-24.454-4.513,370.29-16.421,433.794
				c-12.19,65.015-35.653,126.965-61.125,161.393l-14.505,19.605L1484.582,3106.51L1484.582,3106.51z"/>
			<path id="path3880" inkscape:connector-curvature="0" stroke="#000000" stroke-width="15.8293" d="M1072.153,2261.03v-8.864
				h4.625h4.625v-4.625v-4.625h4.625h4.625v-4.625v-4.625h4.625h4.625v-4.625v-4.625h4.625h4.625v-4.625v-4.625h4.625h4.625v-9.25
				v-9.25h4.625h4.625v-4.625v-4.625h4.625h4.625v-4.625v-4.625h4.625h4.625v-4.625v-4.625h4.625h4.625v-4.625v-4.625h4.625h4.625
				v-4.625v-4.625h4.625h4.625v-4.625v-4.625h4.625h4.625v-4.625v-4.625h4.625h4.625v-4.625v-4.625h4.625h4.625v-9.25v-9.25h4.625
				h4.625v-4.625v-4.625h4.625h4.625v-4.625v-4.625h4.625h4.625v-4.625v-4.625h4.625h4.625v9.25v9.25h-4.625h-4.625v4.625v4.625
				h-4.625h-4.625v9.25v9.25h-4.625h-4.625v4.625v4.625h-4.625h-4.625v4.625v4.625h-4.625h-4.625v4.625v4.625h-4.625h-4.625v9.25
				v9.25h-4.625h-4.625v4.625v4.625h-4.625h-4.625v4.239v4.239h-4.625h-4.625v4.625v4.625h-4.625h-4.625v4.625v4.625h-4.625h-4.625
				v4.625v4.625h-4.625h-4.625v4.625v4.625h-4.625h-4.625v4.625v4.625h-4.625h-4.625v4.625v4.625h-4.625h-4.625v4.625v4.625h-4.625
				h-4.625v4.625v4.625h-4.625h-4.625v4.625v4.625h-4.625h-4.625V2261.03z"/>
		</g>
		<g id="g3913">
			<path id="path3882" inkscape:connector-curvature="0" stroke="#000000" stroke-width="15.8293" d="M-696.652,3364.012
				c-5.935-1.727-10.791-5.711-10.791-8.854s-3.101-5.714-6.892-5.714s-17.971-11.079-31.511-24.619
				c-19.9-19.9-23.876-27.584-20.739-40.081c2.134-8.504,6.602-15.461,9.929-15.461c3.327,0,6.049-3.545,6.049-7.879
				s5.55-12.631,12.333-18.438s12.333-14.749,12.333-19.869c0-5.121,2.605-9.31,5.788-9.31c3.184,0,7.731-13.18,10.105-29.29
				c2.374-16.109,6.44-30.677,9.036-32.373s6.758-71.76,9.251-155.699c2.493-83.939,6.598-152.616,9.123-152.616
				s6.522-18.036,8.882-40.081s6.531-40.081,9.268-40.081c2.736,0,6.848-12.487,9.136-27.748
				c2.289-15.262,6.451-27.748,9.249-27.748s6.961-12.487,9.249-27.748c2.289-15.262,6.301-27.748,8.916-27.748
				c2.615,0,7.823-13.18,11.572-29.29c5.492-23.595,6.183-8.315,3.554,78.604c-1.794,59.341-5.455,109.288-8.134,110.993
				c-2.679,1.705-6.906,50.966-9.394,109.468c-2.487,58.503-6.621,106.369-9.186,106.369s-6.547,16.649-8.849,36.998
				c-2.302,20.349-6.457,36.998-9.234,36.998s-6.591,11.499-8.476,25.554s-6.064,27.235-9.287,29.29
				c-3.223,2.055-7.816,12.754-10.207,23.776c-2.391,11.022-6.601,20.04-9.356,20.04s-6.833,7.272-9.064,16.161
				s-8.081,20.186-13.001,25.105c-16.75,16.75-8.979,20.396,43.468,20.396c28.827,0,52.413-2.474,52.413-5.498
				c0-3.024,6.928-7.237,15.396-9.362c17.297-4.341,83.264-68.421,83.264-80.882c0-4.432,2.981-9.051,6.625-10.266
				s8.191-19.482,10.106-40.595c1.914-21.113,5.473-38.386,7.907-38.386c2.434,0,6.451-64.499,8.926-143.332
				s6.615-144.735,9.2-146.449c2.585-1.715,6.58-23.81,8.878-49.101c2.298-25.291,6.54-47.49,9.427-49.33
				c2.887-1.841,7.22-15.14,9.63-29.554s6.596-26.207,9.304-26.207c2.708,0,6.797-12.487,9.085-27.748
				c2.289-15.261,6.603-27.748,9.587-27.748c2.984,0,8.145-11.793,11.468-26.207c4.538-19.681,5.17-7.781,2.538,47.789
				c-1.928,40.697-5.76,75.478-8.517,77.291s-5.769,55.707-6.692,119.764c-1.27,88.052,0.175,117.087,5.921,119.002
				c4.18,1.394,7.601,8.623,7.601,16.065c0,21.093,23.513,36.744,59.71,39.746c50.564,4.193,61.345-0.637,65.97-29.556
				c2.177-13.612,6.391-24.749,9.365-24.749s7.229-9.712,9.456-21.582c2.227-11.87,6.665-21.582,9.863-21.582
				c3.198,0,7.589-11.099,9.758-24.665c2.169-13.566,6.364-24.665,9.322-24.665c2.958,0,5.378-4.25,5.378-9.443
				s4.162-11.04,9.249-12.992c5.087-1.952,9.249-7.08,9.249-11.396c0-12.317,47.31-57.921,64.586-62.257
				c8.566-2.15,15.575-6.383,15.575-9.407s11.232-5.498,24.96-5.498c19.07,0,28.528,3.85,40.081,16.316
				c8.317,8.974,15.121,20.844,15.121,26.378c0,12.935-26.149,36.101-29.477,26.115c-2.985-8.956-87.682-9.902-87.682-0.98
				c0,3.391-3.949,6.166-8.775,6.166c-11.387,0-46.721,35.334-46.721,46.721c0,4.826-2.775,8.775-6.166,8.775
				c-3.391,0-6.166,11.237-6.166,24.971c0,20.153,4.128,29.221,21.396,47.001c20.62,21.231,22.718,21.935,57.817,19.396
				c23.141-1.674,40.232-6.446,46.873-13.087c5.749-5.749,14.417-10.453,19.262-10.453c4.845,0,8.809-4.189,8.809-9.31
				s5.55-14.061,12.333-19.869c6.783-5.808,12.333-14.105,12.333-18.438s2.775-7.879,6.166-7.879s6.166-3.964,6.166-8.809
				s3.716-12.525,8.258-17.067c4.542-4.542,9.873-12.371,11.846-17.398c2.387-6.082,3.75-4.498,4.074,4.735
				c0.268,7.631-1.933,13.874-4.891,13.874c-2.958,0-7.153,11.099-9.322,24.665c-2.169,13.566-6.466,24.665-9.548,24.665
				c-3.082,0-7.432,8.324-9.667,18.499c-2.235,10.174-6.397,18.499-9.249,18.499s-7.015,8.324-9.249,18.499
				c-2.235,10.174-6.617,18.499-9.739,18.499c-3.122,0-5.676,4.249-5.676,9.443c0,5.194-3.912,10.944-8.693,12.779
				c-4.781,1.835-10.384,10.072-12.45,18.305c-2.066,8.233-6.479,14.969-9.806,14.969s-6.049,4.25-6.049,9.443
				s-4.162,11.04-9.249,12.992c-5.087,1.952-9.249,7.109-9.249,11.46c0,10.825-63.984,75.046-79.756,80.052
				c-7.006,2.223-12.738,6.33-12.738,9.125c0,2.795-7.603,6.99-16.896,9.323c-9.293,2.332-18.758,7.254-21.034,10.937
				c-6.13,9.918-117.485,9.949-120.825,0.031c-1.428-4.239-6.314-7.708-10.858-7.708c-4.544,0-17.045-8.784-27.781-19.52
				c-15.691-15.691-20.604-17.808-25.045-10.791c-3.039,4.801-5.568,13.585-5.62,19.52c-0.052,5.935-2.515,10.791-5.473,10.791
				s-7.153,11.099-9.322,24.665c-2.169,13.566-6.466,24.665-9.548,24.665s-7.432,8.325-9.667,18.499s-6.397,18.499-9.249,18.499
				c-2.852,0-6.964,8.093-9.136,17.984c-2.172,9.891-7.943,19.516-12.823,21.389c-4.88,1.875-8.873,6.426-8.873,10.114
				c0,8.663-57.98,67.676-66.491,67.676c-3.562,0-7.541,3.194-8.842,7.099C-618.759,3363.956-677.941,3369.457-696.652,3364.012
				L-696.652,3364.012L-696.652,3364.012z"/>
			<path id="path3884" inkscape:connector-curvature="0" stroke="#000000" stroke-width="15.8293" d="M-1652.426,3401.381
				c4.239-1.999,7.708-7.652,7.708-12.563s4.162-10.526,9.249-12.479s9.249-7.281,9.249-11.842s9.712-17.725,21.582-29.253
				c11.87-11.528,21.582-22.917,21.582-25.309c0-5.735,58.743-65.318,64.396-65.318c2.41,0,12.706-8.325,22.88-18.499
				c10.174-10.174,22.151-18.499,26.614-18.499s9.713-4.162,11.665-9.25c1.952-5.087,7.799-9.25,12.992-9.25
				c5.194,0,9.443-2.474,9.443-5.498c0-3.024,7.603-7.406,16.896-9.738s18.626-7.041,20.741-10.462
				c6.073-9.826,61.282-8.526,67.534,1.59c7.301,11.813,148.358,12.726,152.272,0.985c1.413-4.239,5.526-7.708,9.14-7.708
				c8.399,0,44.137-36.688,49.555-50.872c2.267-5.935,6.683-10.791,9.813-10.791s7.432-6.937,9.561-15.416
				s6.591-15.416,9.918-15.416c3.327,0,6.049-3.544,6.049-7.876s7.955-14.857,17.678-23.388
				c9.723-8.532,19.577-21.494,21.897-28.806s9.894-15.095,16.829-17.296c15.999-5.078,60.755-50.838,60.755-62.118
				c0-4.678,2.864-8.506,6.365-8.506c3.501,0,8.476-5.707,11.056-12.681c4.639-12.541,4.867-12.518,20.662,2.121
				c8.784,8.141,17.87,20.784,20.191,28.097s6.638,13.295,9.593,13.295c2.955,0,7.245,12.487,9.534,27.748
				c2.289,15.262,6.621,27.748,9.627,27.748c3.006,0,5.466,11.099,5.466,24.665c0,13.566-2.775,24.665-6.166,24.665
				s-6.166,7.024-6.166,15.609s-3.912,17.11-8.693,18.945c-4.781,1.835-10.373,10.03-12.426,18.211
				c-2.263,9.017-9.768,16.39-19.055,18.721c-8.427,2.115-15.322,6.32-15.322,9.343c0,3.024-11.099,5.498-24.665,5.498
				c-13.566,0-24.665-2.775-24.665-6.166c0-3.392-15.262-6.166-33.915-6.166c-18.653,0-33.915,2.775-33.915,6.166
				s-3.857,6.166-8.571,6.166c-9.422,0-77.757,64.727-77.757,73.651c0,3.059-8.324,13.886-18.499,24.061
				c-10.174,10.174-18.499,20.444-18.499,22.821c0,8.884-78.407,81.564-92.866,86.082c-8.274,2.586-17.027,7.796-19.45,11.578
				c-6.606,10.312-114.893,9.132-121.354-1.322c-2.771-4.483-16.537-9.694-30.592-11.579s-25.554-5.837-25.554-8.782
				s-8.324-5.354-18.499-5.354c-10.174,0-18.499,2.409-18.499,5.354c0,2.945-11.499,6.897-25.554,8.782
				c-14.055,1.885-27.235,6.039-29.29,9.23c-2.055,3.191-9.979,7.751-17.61,10.132s-13.874,6.917-13.874,10.081
				s-4.024,5.75-8.943,5.75c-4.919,0-11.162,3.941-13.874,8.758c-2.712,4.817-13.256,10.383-23.43,12.37
				C-1651.81,3403.389-1656.666,3403.379-1652.426,3401.381L-1652.426,3401.381z"/>
			<path id="path3886" inkscape:connector-curvature="0" stroke="#000000" stroke-width="15.8293" d="M-721.317,2346.255
				c-7.177-1.875-10.791-8.865-10.791-20.867c0-9.926-2.775-18.046-6.166-18.046c-3.391,0-6.166-4.162-6.166-9.25
				s2.775-9.25,6.166-9.25s6.488-9.018,6.882-20.041c0.423-11.844,1.782-14.996,3.323-7.708c1.434,6.783,3.94,18.576,5.568,26.207
				c2.469,11.569,7.039,13.874,27.508,13.874c13.501,0,24.548-2.775,24.548-6.166c0-3.392,4.162-6.166,9.249-6.166
				s9.249-3.865,9.249-8.59c0-4.724,4.162-10.187,9.249-12.139s9.249-7.799,9.249-12.992s4.162-9.443,9.249-9.443
				c5.139,0,9.249,5.481,9.249,12.333s4.111,12.333,9.249,12.333c5.087,0,9.249,2.775,9.249,6.166
				c0,13.095,32.856,5.782,48.146-10.715l15.645-16.881l-4.24,21.2c-2.332,11.66-6.599,22.725-9.482,24.589
				c-2.883,1.865-7.103,9.357-9.378,16.651c-2.274,7.293-11.393,15.083-20.264,17.309c-12.963,3.253-19.508,0.348-33.346-14.802
				c-9.47-10.368-20.195-18.851-23.835-18.851s-18.582,12.487-33.205,27.748C-692.15,2349.623-698.323,2352.265-721.317,2346.255
				L-721.317,2346.255z"/>
		</g>
		<g id="g3918">
			<path id="path3888" inkscape:connector-curvature="0" stroke="#000000" stroke-width="15.8293" d="M-2414.447,3363.837
				c-16.527-3.505-62.72-48.714-62.72-61.384c0-4.678-2.474-8.506-5.498-8.506s-7.406-7.603-9.738-16.896
				s-7.463-18.887-11.401-21.321c-8.475-5.238-7.38-190.223,1.158-195.761c2.904-1.884,7.302-39.489,9.773-83.568
				s6.66-81.539,9.308-83.245c2.648-1.706,6.817-30.156,9.265-63.222c2.448-33.067,6.644-60.121,9.323-60.121
				s6.804-18.036,9.165-40.081c2.361-22.044,6.531-40.081,9.268-40.081c2.736,0,6.848-12.487,9.136-27.748
				c2.289-15.262,6.733-27.748,9.877-27.748s7.49-11.099,9.66-24.665c2.169-13.566,6.171-24.665,8.893-24.665
				c2.722,0,6.152-6.243,7.621-13.874s3.05,0.694,3.512,18.499c0.462,17.805-1.601,32.373-4.585,32.373
				c-2.983,0-7.425,34.685-9.87,77.079s-6.662,77.078-9.37,77.078s-6.941,35.379-9.406,78.62
				c-2.465,43.241-6.884,80.157-9.819,82.035c-7.467,4.779-8.177,172.951-0.75,177.727c3.29,2.115,8.067,10.523,10.616,18.683
				c5.305,16.982,32.016,43.743,43.66,43.743c4.309,0,8.991,3.469,10.405,7.708c1.781,5.344,18.328,7.708,53.955,7.708
				s52.174-2.364,53.955-7.708c1.413-4.239,6.195-7.708,10.626-7.708c10.702,0,75.105-63.711,80.003-79.143
				c2.117-6.669,10.686-13.841,19.043-15.939c8.357-2.097,15.237-7.229,15.289-11.404c0.061-4.921,2.23-4.338,6.166,1.659
				c5.397,8.222,6.747,8.222,12.144,0c3.34-5.087,6.115-6.146,6.166-2.354c0.104,7.588,45.91,15.648,59.433,10.458
				c4.669-1.792,8.49-7.15,8.49-11.908s5.55-13.402,12.333-19.21c6.783-5.808,12.333-14.105,12.333-18.438s2.474-7.879,5.498-7.879
				s7.406-7.603,9.738-16.896s7.006-18.604,10.385-20.693c3.38-2.089,7.687-15.297,9.573-29.352
				c1.885-14.055,5.629-25.554,8.319-25.554s6.845-24.973,9.233-55.496c2.388-30.523,6.347-55.497,8.798-55.497
				c2.451,0,6.207-22.699,8.347-50.442c2.139-27.743,6.583-52.106,9.874-54.14s7.856-15.408,10.145-29.72s6.361-26.022,9.049-26.022
				c2.688,0,6.666-8.093,8.838-17.984s7.943-19.516,12.823-21.388c4.88-1.873,8.873-7.654,8.873-12.848
				c0-5.193,2.775-9.443,6.166-9.443s6.166-3.964,6.166-8.809s3.716-12.525,8.258-17.067c4.542-4.542,9.873-12.371,11.846-17.398
				c2.387-6.082,3.75-4.498,4.074,4.735c0.268,7.631-2.088,13.874-5.236,13.874s-7.685,15.955-10.084,35.456
				c-2.399,19.501-6.688,36.962-9.531,38.803c-2.844,1.841-7.029,23.346-9.301,47.789c-2.272,24.443-6.181,44.442-8.687,44.442
				s-6.506,20.811-8.89,46.247c-2.384,25.436-6.517,46.247-9.186,46.247c-2.669,0-6.725,11.71-9.013,26.022
				c-2.289,14.312-6.764,27.631-9.945,29.596c-3.181,1.966-7.56,12.454-9.73,23.308c-5.077,25.384,4.81,25.8,29.375,1.235
				c10.174-10.174,21.193-18.499,24.485-18.499c3.293,0,12.793-7.344,21.113-16.321c27.029-29.165,103.871-28.475,111.268,1
				c2.115,8.427,6.32,15.322,9.343,15.322s5.498,9.712,5.498,21.582s-2.466,21.582-5.48,21.582c-3.014,0-7.302,9.712-9.529,21.582
				c-2.227,11.87-6.477,21.582-9.446,21.582c-2.968,0-7.225,8.324-9.46,18.499c-2.235,10.174-6.317,18.499-9.071,18.499
				c-2.754,0-6.749,6.937-8.877,15.416c-2.128,8.478-6.591,15.416-9.918,15.416c-3.327,0-6.049,4.25-6.049,9.443
				s-4.057,11-9.015,12.902c-4.958,1.903-10.78,9.019-12.936,15.815c-4.336,13.661-50.206,60.501-59.249,60.501
				c-3.144,0-11.969,6.745-19.609,14.99s-21.382,16.87-30.537,19.167c-9.155,2.297-16.645,6.35-16.645,9.007
				s-7.603,6.738-16.896,9.07c-9.293,2.333-18.796,7.315-21.118,11.073c-5.735,9.28-115.073,9.938-120.981,0.729
				c-2.426-3.782-10.655-8.825-18.286-11.207s-13.874-6.917-13.874-10.081s-8.324-5.751-18.499-5.751s-18.499,2.474-18.499,5.498
				s-6.752,7.192-15.005,9.264s-16.902,9.742-19.22,17.047s-10.341,19.091-17.828,26.192s-15.4,17.768-17.584,23.703
				s-6.533,10.791-9.663,10.791c-3.13,0-7.432,6.937-9.56,15.416s-6.591,15.416-9.918,15.416s-6.049,3.545-6.049,7.879
				c0,8.696-21.458,29.118-30.595,29.118c-3.184,0-8.283,4.456-11.331,9.902
				C-2346.052,3363.511-2387.738,3369.501-2414.447,3363.837L-2414.447,3363.837L-2414.447,3363.837z M-1922.89,3073.26
				c2.074-3.254,12.79-7.873,23.812-10.264c11.022-2.391,20.041-6.715,20.041-9.609c0-2.893,5.816-7.107,12.925-9.363
				c15.157-4.811,61.113-50.542,60.976-60.677c-0.285-21.034-11.816-25.463-66.291-25.463h-54.502l-32.051,31.549
				c-17.628,17.352-32.051,33.521-32.051,35.93c0,2.41-8.324,12.706-18.499,22.88c-32.025,32.025-26.203,38.339,31.685,34.372
				C-1949.243,3080.725-1924.964,3076.514-1922.89,3073.26L-1922.89,3073.26z"/>
			<path id="path3890" inkscape:connector-curvature="0" stroke="#000000" stroke-width="15.8293" d="M-3253.063,3363.837
				c-16.527-3.505-62.72-48.714-62.72-61.384c0-4.678-2.474-8.506-5.498-8.506s-7.406-7.603-9.738-16.896
				s-7.463-18.887-11.401-21.321c-8.475-5.238-7.381-190.223,1.158-195.761c2.904-1.884,7.302-39.489,9.773-83.568
				s6.66-81.539,9.308-83.245c2.648-1.706,6.817-30.156,9.265-63.222c2.448-33.067,6.644-60.121,9.323-60.121
				s6.804-18.036,9.165-40.081c2.361-22.044,6.531-40.081,9.268-40.081s6.848-12.487,9.136-27.748
				c2.289-15.262,6.733-27.748,9.876-27.748s7.49-11.099,9.66-24.665c2.169-13.566,6.171-24.665,8.893-24.665
				c2.722,0,6.152-6.243,7.622-13.874s3.05,0.694,3.512,18.499c0.462,17.805-1.601,32.373-4.585,32.373s-7.425,34.685-9.87,77.079
				s-6.662,77.078-9.37,77.078s-6.941,35.379-9.406,78.62c-2.465,43.241-6.884,80.157-9.819,82.035
				c-7.467,4.779-8.177,172.951-0.75,177.727c3.29,2.115,8.067,10.523,10.616,18.683c5.305,16.982,32.016,43.743,43.661,43.743
				c4.309,0,8.991,3.469,10.405,7.708c1.781,5.344,18.328,7.708,53.955,7.708c35.627,0,52.173-2.364,53.955-7.708
				c1.413-4.239,6.195-7.708,10.626-7.708c10.702,0,75.105-63.711,80.003-79.143c2.117-6.669,10.686-13.841,19.043-15.939
				c8.357-2.097,15.237-7.229,15.289-11.404c0.061-4.921,2.23-4.338,6.166,1.659c5.397,8.222,6.747,8.222,12.144,0
				c3.34-5.087,6.115-6.146,6.166-2.354c0.104,7.588,45.91,15.648,59.434,10.458c4.669-1.792,8.49-7.15,8.49-11.908
				s5.55-13.402,12.333-19.21c6.783-5.808,12.333-14.105,12.333-18.438s2.474-7.879,5.498-7.879s7.406-7.603,9.738-16.896
				s7.006-18.604,10.385-20.693c3.379-2.089,7.687-15.297,9.572-29.352c1.885-14.055,5.629-25.554,8.319-25.554
				s6.845-24.973,9.233-55.496c2.388-30.523,6.347-55.497,8.798-55.497c2.451,0,6.208-22.699,8.347-50.442
				c2.139-27.743,6.583-52.106,9.874-54.14s7.856-15.408,10.145-29.72s6.361-26.022,9.049-26.022s6.666-8.093,8.838-17.984
				c2.173-9.891,7.943-19.516,12.823-21.388s8.873-7.654,8.873-12.848c0-5.193,2.775-9.443,6.166-9.443
				c3.392,0,6.166-3.964,6.166-8.809s3.716-12.525,8.258-17.067c4.542-4.542,9.873-12.371,11.846-17.398
				c2.387-6.082,3.75-4.498,4.074,4.735c0.268,7.631-2.088,13.874-5.236,13.874c-3.147,0-7.685,15.955-10.084,35.456
				c-2.399,19.501-6.688,36.962-9.531,38.803c-2.844,1.841-7.029,23.346-9.301,47.789c-2.272,24.443-6.181,44.442-8.687,44.442
				c-2.506,0-6.507,20.811-8.89,46.247s-6.517,46.247-9.186,46.247s-6.725,11.71-9.013,26.022
				c-2.289,14.312-6.764,27.631-9.945,29.596s-7.56,12.454-9.73,23.308c-5.077,25.384,4.81,25.8,29.375,1.235
				c10.174-10.174,21.193-18.499,24.485-18.499c3.292,0,12.902-7.462,21.354-16.582c12.596-13.592,22.061-17.066,52.487-19.267
				c32.917-2.381,38.649-1.042,50.626,11.827c10.767,11.569,13.461,21.802,13.284,50.46c-0.123,19.921-3.342,37.877-7.219,40.273
				c-3.848,2.378-8.905,11.927-11.237,21.22s-6.494,16.896-9.248,16.896c-2.754,0-6.836,8.324-9.071,18.499
				s-6.564,18.499-9.622,18.499s-7.3,6.937-9.428,15.416c-2.128,8.479-6.403,15.416-9.499,15.416s-9.039,7.581-13.206,16.846
				c-8.179,18.188-51.676,63.316-61.027,63.316c-3.144,0-11.969,6.745-19.609,14.99c-7.641,8.244-21.382,16.87-30.537,19.167
				c-9.155,2.297-16.645,6.35-16.645,9.007s-7.603,6.738-16.896,9.07c-9.292,2.333-18.795,7.315-21.118,11.073
				c-5.735,9.28-115.073,9.938-120.982,0.729c-2.426-3.782-10.655-8.825-18.286-11.207c-7.631-2.381-13.874-6.917-13.874-10.081
				s-8.324-5.751-18.499-5.751s-18.499,2.474-18.499,5.498s-6.752,7.192-15.005,9.264s-16.902,9.742-19.22,17.047
				s-10.341,19.091-17.828,26.192s-15.4,17.768-17.584,23.703s-6.533,10.791-9.663,10.791c-3.13,0-7.432,6.937-9.56,15.416
				s-6.591,15.416-9.918,15.416c-3.327,0-6.049,3.545-6.049,7.879c0,8.696-21.458,29.118-30.595,29.118
				c-3.184,0-8.283,4.456-11.331,9.902C-3184.668,3363.512-3226.353,3369.501-3253.063,3363.837L-3253.063,3363.837
				L-3253.063,3363.837z M-2761.505,3073.26c2.074-3.254,12.79-7.873,23.812-10.264c11.022-2.391,20.041-6.849,20.041-9.906
				c0-3.057,6.937-7.3,15.416-9.428c8.479-2.128,15.416-5.917,15.416-8.421c0-2.504,9.712-14.552,21.582-26.774
				c24.844-25.581,25.071-26.392,11.231-40.231c-7.991-7.991-21.77-10.351-60.444-10.351h-50.093l-32.051,31.549
				c-17.628,17.352-32.051,33.521-32.051,35.93c0,2.41-8.324,12.706-18.499,22.88c-32.025,32.025-26.203,38.339,31.685,34.372
				C-2787.859,3080.725-2763.579,3076.515-2761.505,3073.26L-2761.505,3073.26z"/>
			<path id="path3892" inkscape:connector-curvature="0" stroke="#000000" stroke-width="15.8293" d="M-3955.534,3666.035
				c-11.022-1.59-20.041-5.19-20.041-7.999s-6.937-6.848-15.416-8.976c-8.479-2.128-15.416-6.591-15.416-9.918
				s-3.949-6.049-8.775-6.049c-11.039,0-46.721-35.179-46.721-46.062c0-4.463-4.162-9.712-9.25-11.665
				c-5.087-1.952-9.25-7.799-9.25-12.992c0-5.194-2.649-9.443-5.887-9.443s-7.8-10.406-10.139-23.124
				c-2.338-12.718-7.32-25.106-11.07-27.529c-9.467-6.116-9.436-207.102,0.034-213.182c3.769-2.42,8.794-17.58,11.169-33.689
				c2.374-16.109,6.556-29.29,9.293-29.29s6.519-11.499,8.404-25.554s6.073-27.235,9.306-29.29
				c3.233-2.055,7.85-15.529,10.259-29.943c2.409-14.414,6.691-26.207,9.515-26.207c2.824,0,6.963-8.324,9.198-18.499
				s6.263-18.499,8.951-18.499s6.663-11.099,8.833-24.665c2.169-13.566,6.325-24.665,9.236-24.665s8.788-12.487,13.061-27.748
				c4.273-15.262,9.962-27.748,12.644-27.748c2.681,0,6.703-8.324,8.938-18.499s6.397-18.499,9.25-18.499s7.015-8.324,9.25-18.499
				s6.216-18.499,8.847-18.499s7.858-9.018,11.615-20.04c6.495-19.055,6.655-18.676,3.248,7.708
				c-1.971,15.261-5.943,28.644-8.827,29.739s-7.028,11.5-9.208,23.124s-6.21,21.133-8.955,21.133s-6.818,8.324-9.053,18.499
				s-6.263,18.499-8.951,18.499c-2.688,0-6.663,11.099-8.833,24.665c-2.169,13.566-6.409,24.665-9.422,24.665
				s-8.807,13.874-12.875,30.832s-9.54,30.832-12.16,30.832c-2.62,0-6.538,11.099-8.707,24.665s-6.591,24.665-9.825,24.665
				s-7.721,13.874-9.971,30.831c-2.25,16.958-6.507,30.832-9.462,30.832s-5.372,30.523-5.372,67.829
				c0,37.306,2.466,67.829,5.48,67.829c3.014,0,7.302,9.712,9.529,21.582s6.645,21.582,9.818,21.582s7.51,6.937,9.638,15.416
				c2.128,8.479,5.919,15.416,8.423,15.416c2.505,0,10.953,5.55,18.774,12.333s17.726,12.333,22.011,12.333
				s8.951,3.468,10.368,7.708c3.447,10.313,230.999,11.164,237.624,0.89c2.418-3.75,14.802-8.732,27.52-11.07
				c12.718-2.339,23.123-6.681,23.123-9.649s8.093-7.174,17.984-9.347c9.891-2.172,19.516-7.942,21.388-12.823
				c1.873-4.88,6.489-8.873,10.258-8.873c10.858,0,77.683-69.726,82.938-86.538c2.614-8.363,7.227-16.802,10.25-18.753
				s7.192-17.848,9.262-35.326c3.254-27.472,2.187-32.375-7.871-36.188c-6.399-2.425-15.301-8.034-19.783-12.463
				s-12.112-8.053-16.957-8.053s-8.809-2.554-8.809-5.676s-8.093-7.454-17.984-9.626c-9.891-2.172-19.516-7.942-21.389-12.822
				c-1.873-4.88-7.654-8.872-12.848-8.872s-9.443-4.162-9.443-9.25s-2.775-9.25-6.166-9.25c-3.479,0-6.166-17.471-6.166-40.081
				c0-22.044,2.42-40.081,5.378-40.081s7.153-11.099,9.323-24.665c2.169-13.566,6.466-24.665,9.548-24.665
				c3.082,0,7.432-8.324,9.667-18.499s6.448-18.499,9.362-18.499c2.914,0,7.171-12.487,9.46-27.748
				c2.289-15.262,6.4-27.748,9.137-27.748s6.805-8.324,9.039-18.499s6.309-18.499,9.053-18.499c2.745,0,6.812-9.712,9.039-21.582
				s6.383-21.582,9.236-21.582c2.853,0,7.059-12.487,9.348-27.748c2.289-15.262,6.766-27.748,9.95-27.748s5.789-15.262,5.789-33.915
				c0-18.653-2.742-33.914-6.094-33.914s-7.868-11.099-10.038-24.665s-6.144-24.665-8.832-24.665s-6.666-8.093-8.838-17.984
				c-2.173-9.891-7.943-19.516-12.823-21.388s-8.873-7.654-8.873-12.848s-2.775-9.443-6.166-9.443s-6.166-5.55-6.166-12.333
				s2.46-12.332,5.466-12.332c3.006,0,7.339-12.487,9.627-27.748c2.289-15.262,6.451-27.748,9.25-27.748s6.961-12.487,9.25-27.748
				c2.289-15.262,6.411-27.748,9.162-27.748c2.75,0,6.775-11.099,8.944-24.665c2.169-13.566,6.686-24.665,10.038-24.665
				c10.113,0,30.189,23.33,34.353,39.924c2.15,8.565,6.257,15.573,9.127,15.573s7.132,10.406,9.47,23.124s7.32,25.104,11.07,27.525
				c9.325,6.019,9.091,151.846-0.253,157.762c-3.759,2.379-8.805,16.119-11.214,30.533s-6.557,26.207-9.217,26.207
				s-6.611,11.099-8.78,24.665s-6.516,24.665-9.66,24.665s-7.588,12.487-9.877,27.748c-2.289,15.262-6.495,27.748-9.348,27.748
				s-7.009,9.712-9.236,21.582c-2.227,11.87-6.482,21.582-9.456,21.582c-2.974,0-7.182,11.099-9.351,24.665
				s-6.041,24.665-8.603,24.665c-6.808,0-11.624,22.695-7.866,37.065c1.783,6.82,9.647,14.008,17.475,15.972
				c7.828,1.965,15.734,7.484,17.568,12.265c1.834,4.781,6.411,8.693,10.17,8.693s15.639,8.823,26.4,19.608l19.566,19.608
				l-0.137,91.695c-0.09,60.096-2.486,93.182-6.953,96.01c-3.748,2.373-8.786,16.108-11.196,30.521s-6.878,26.207-9.932,26.207
				c-3.053,0-7.326,11.099-9.496,24.665c-2.169,13.566-6.144,24.665-8.833,24.665c-2.688,0-6.717,8.325-8.951,18.499
				c-2.235,10.174-6.397,18.499-9.25,18.499s-7.015,8.325-9.249,18.499s-6.617,18.499-9.74,18.499c-3.122,0-5.676,3.738-5.676,8.306
				c0,4.568-5.55,14.705-12.333,22.525c-6.783,7.821-12.45,17.263-12.594,20.984s-8.468,13.571-18.499,21.891
				s-18.238,17.557-18.238,20.527c0,6.968-52.851,59.924-59.806,59.924c-2.906,0-10.034,5.55-15.842,12.333
				c-5.808,6.783-14.452,12.333-19.21,12.333c-4.758,0-10.247,4.162-12.199,9.249s-7.799,9.25-12.992,9.25s-9.443,2.649-9.443,5.887
				s-10.406,7.8-23.124,10.139c-12.718,2.339-24.769,6.779-26.779,9.867C-3826.097,3665.292-3924.638,3670.493-3955.534,3666.035
				L-3955.534,3666.035L-3955.534,3666.035z"/>
			<path id="path3894" inkscape:connector-curvature="0" stroke="#000000" stroke-width="15.8293" d="M-3608.118,2117.729
				c2.165-12.395,0.961-20.041-3.156-20.041c-3.661,0-12.206-5.55-18.989-12.333c-6.783-6.783-9.745-12.333-6.582-12.333
				s7.599-5.823,9.858-12.941c4.752-14.972,27.555-39.618,27.555-29.782c0,18.498,21.139,27.303,64.329,26.797
				c34.14-0.401,39.898,0.711,26.616,5.139c-9.322,3.107-16.95,8.193-16.95,11.302s-4.25,5.652-9.443,5.652
				s-11.04,4.162-12.992,9.25c-1.952,5.087-7.442,9.25-12.199,9.25c-4.757,0-13.402,5.55-19.209,12.333
				c-5.808,6.783-13.874,12.333-17.925,12.333c-4.051,0-8.951,3.469-10.89,7.708
				C-3610.033,2134.301-3610.044,2128.751-3608.118,2117.729L-3608.118,2117.729L-3608.118,2117.729z"/>
			<path id="path3896" inkscape:connector-curvature="0" stroke="#000000" stroke-width="15.8293" d="M-3574.325,1998.587
				c18.376-18.376,45.221-18.994,47.77-1.101c1.827,12.823-0.391,13.874-29.284,13.874h-31.26L-3574.325,1998.587
				L-3574.325,1998.587z"/>
			<path id="path3898" inkscape:connector-curvature="0" stroke="#000000" stroke-width="15.8293" d="M-3237.85,3751.064
				c-1.952-5.087-7.799-9.25-12.992-9.25s-9.443-2.775-9.443-6.166s-3.757-6.166-8.349-6.166c-14.691,0-40.981-29.479-40.981-45.953
				c0-8.641,2.649-15.71,5.887-15.71s7.709-9.712,9.936-21.582s6.515-21.582,9.529-21.582s5.48-3.964,5.48-8.809
				s3.796-12.605,8.436-17.245c4.64-4.64,10.463-14.824,12.941-22.631c4.804-15.138,27.953-41.548,27.953-31.892
				c0,3.163,5.983,7.649,13.295,9.97c15.655,4.969,42.201,32.08,42.201,43.099c0,4.229,4.502,9.417,10.005,11.529
				c8.082,3.102,9.457,10.448,7.154,38.225c-1.568,18.912-5.851,36.239-9.516,38.505s-8.522,11.521-10.793,20.568
				s-8.04,17.95-12.822,19.785c-4.781,1.835-8.693,6.396-8.693,10.136c0,9.734-16.026,24.418-26.648,24.418
				C-3230.238,3760.313-3235.898,3756.151-3237.85,3751.064L-3237.85,3751.064z"/>
			<path id="path3900" inkscape:connector-curvature="0" stroke="#000000" stroke-width="15.8293" d="M-2399.236,3751.064
				c-1.952-5.087-7.798-9.25-12.992-9.25s-9.443-2.775-9.443-6.166s-3.757-6.166-8.349-6.166c-14.692,0-40.981-29.479-40.981-45.953
				c0-8.641,2.649-15.71,5.887-15.71s7.709-9.712,9.936-21.582s6.515-21.582,9.529-21.582s5.48-3.964,5.48-8.809
				s3.796-12.605,8.436-17.245c4.64-4.64,10.463-14.824,12.941-22.631c4.804-15.138,27.953-41.548,27.953-31.892
				c0,3.163,5.983,7.649,13.295,9.97c15.655,4.969,42.201,32.08,42.201,43.099c0,4.229,4.502,9.417,10.005,11.529
				c8.082,3.102,9.457,10.448,7.154,38.225c-1.568,18.912-5.851,36.239-9.516,38.505s-8.522,11.521-10.793,20.568
				s-8.04,17.95-12.822,19.785c-4.781,1.835-8.693,6.396-8.693,10.136c0,9.734-16.026,24.418-26.648,24.418
				C-2391.623,3760.313-2397.284,3756.151-2399.236,3751.064L-2399.236,3751.064z"/>
		</g>
	</g>
</g>
</svg>
